name Walk5.mot
datacolumns 19
datarows 25
range 1.40500000 1.52500000
endheader

                time	   L_ground_force_vx	   L_ground_force_vy	   L_ground_force_vz	   L_ground_force_px	   L_ground_force_py	   L_ground_force_pz	   R_ground_force_vx	   R_ground_force_vy	   R_ground_force_vz	   R_ground_force_px	   R_ground_force_py	   R_ground_force_pz	   L_ground_torque_x	   L_ground_torque_y	   L_ground_torque_z	   R_ground_torque_x	   R_ground_torque_y	   R_ground_torque_z	
          1.40500000	         41.89203667	        941.19159223	         82.02455111	         -0.17589176	          0.00000000	         -0.05653077	         -0.01152372	          0.25691972	          0.02403949	          0.00026158	          0.00000000	          0.00006970	          0.00000000	         -1.73854535	          0.00000000	          0.00000000	          0.00040156	          0.00000000	
          1.41000000	         45.50318461	        949.16623156	         82.89055929	         -0.17492152	          0.00000000	         -0.05672806	         -0.01995531	          0.36465304	          0.03310545	          0.00034011	          0.00000000	          0.00009019	          0.00000000	         -1.81859622	          0.00000000	          0.00000000	          0.00143233	          0.00000000	
          1.41500000	         49.18005938	        957.36976526	         83.70247256	         -0.17394962	          0.00000000	         -0.05690970	         -0.03064231	          0.48767824	          0.04315989	          0.00042061	          0.00000000	          0.00011102	          0.00000000	         -1.90249306	          0.00000000	          0.00000000	          0.00286304	          0.00000000	
          1.42000000	         52.93176323	        965.76641454	         84.45061432	         -0.17297462	          0.00000000	         -0.05707534	         -0.04352835	          0.61937682	          0.05351575	          0.00049427	          0.00000000	          0.00012982	          0.00000000	         -1.98893847	          0.00000000	          0.00000000	          0.00474097	          0.00000000	
          1.42500000	         56.76957759	        974.30668340	         85.12722588	         -0.17199490	          0.00000000	         -0.05722336	         -0.05825431	          0.74835836	          0.06306448	          0.00054818	          0.00000000	          0.00014311	          0.00000000	         -2.07621184	          0.00000000	          0.00000000	          0.00708468	          0.00000000	
          1.43000000	         60.70613479	        982.92698461	         85.72609134	         -0.17100899	          0.00000000	         -0.05735277	         -0.07403328	          0.85719595	          0.07017696	          0.00056464	          0.00000000	          0.00014619	          0.00000000	         -2.16225021	          0.00000000	          0.00000000	          0.00986568	          0.00000000	
          1.43500000	         64.75461913	        991.55317761	         86.24172065	         -0.17001586	          0.00000000	         -0.05746354	         -0.08950830	          0.92119876	          0.07261321	          0.00052067	          0.00000000	          0.00013297	          0.00000000	         -2.24474952	          0.00000000	          0.00000000	          0.01298559	          0.00000000	
          1.44000000	         68.92851954	       1000.11032898	         86.66907969	         -0.16901583	          0.00000000	         -0.05755609	         -0.10260086	          0.90739376	          0.06745702	          0.00038790	          0.00000000	          0.00009595	          0.00000000	         -2.32148843	          0.00000000	          0.00000000	          0.01624922	          0.00000000	
          1.44500000	         73.23995223	       1008.52681512	         87.00418440	         -0.16801050	          0.00000000	         -0.05763211	         -0.11036355	          0.77395939	          0.05109720	          0.00013301	          0.00000000	          0.00002639	          0.00000000	         -2.39053082	          0.00000000	          0.00000000	          0.01933449	          0.00000000	
          1.45000000	         77.70131611	       1016.73089010	         87.24454324	         -0.16700190	          0.00000000	         -0.05769408	         -0.10885761	          0.47043362	          0.01928432	         -0.00028086	          0.00000000	         -0.00008533	          0.00000000	         -2.45040991	          0.00000000	          0.00000000	          0.02176111	          0.00000000	
          1.45500000	         82.32794078	       1024.65191824	         87.38901037	         -0.16599225	          0.00000000	         -0.05774472	         -0.09308409	         -0.06089599	         -0.03270234	         -0.00089161	          0.00000000	         -0.00024903	          0.00000000	         -2.50005017	          0.00000000	          0.00000000	          0.02286137	          0.00000000	
          1.46000000	         87.13843004	       1032.22612210	         87.43862105	         -0.16498454	          0.00000000	         -0.05778615	         -0.05700728	         -0.88193041	         -0.10973617	         -0.00173403	          0.00000000	         -0.00047358	          0.00000000	         -2.53882597	          0.00000000	          0.00000000	          0.02175764	          0.00000000	
          1.46500000	         92.15383589	       1039.39652334	         87.39814243	         -0.16398278	          0.00000000	         -0.05782000	          0.00628075	         -2.05346804	         -0.21632761	         -0.00283383	          0.00000000	         -0.00076534	          0.00000000	         -2.56631328	          0.00000000	          0.00000000	          0.01735319	          0.00000000	
          1.47000000	         97.39741510	       1046.11301720	         87.27671487	         -0.16299121	          0.00000000	         -0.05784790	          0.10419623	         -3.62708978	         -0.35586487	         -0.00419934	          0.00000000	         -0.00112592	          0.00000000	         -2.58217597	          0.00000000	          0.00000000	          0.00834483	          0.00000000	
          1.47500000	        102.89175652	       1052.33304287	         87.08804946	         -0.16201383	          0.00000000	         -0.05787202	          0.24403332	         -5.63364158	         -0.52956830	         -0.00581080	          0.00000000	         -0.00154933	          0.00000000	         -2.58570461	          0.00000000	          0.00000000	         -0.00673176	          0.00000000	
          1.48000000	        108.65599318	       1058.01775794	         86.84838873	         -0.16105430	          0.00000000	         -0.05789391	          0.43199629	         -8.06783153	         -0.73512727	         -0.00760704	          0.00000000	         -0.00201852	          0.00000000	         -2.57602334	          0.00000000	          0.00000000	         -0.02941168	          0.00000000	
          1.48500000	        114.70124101	       1063.12601330	         86.57362594	         -0.16011534	          0.00000000	         -0.05791394	          0.67182464	        -10.86866779	         -0.96500993	         -0.00946991	          0.00000000	         -0.00250122	          0.00000000	         -2.55234918	          0.00000000	          0.00000000	         -0.06115101	          0.00000000	
          1.49000000	        121.02439990	       1067.60820189	         86.27765876	         -0.15919690	          0.00000000	         -0.05793188	          0.96295328	        -13.89582309	         -1.20447145	         -0.01120691	          0.00000000	         -0.00294547	          0.00000000	         -2.51457767	          0.00000000	          0.00000000	         -0.10310303	          0.00000000	
          1.49500000	        127.59998636	       1071.40134399	         85.97072986	         -0.15829602	          0.00000000	         -0.05794710	          1.29817418	        -16.90256246	         -1.42933774	         -0.01253343	          0.00000000	         -0.00327496	          0.00000000	         -2.46375667	          0.00000000	          0.00000000	         -0.15580666	          0.00000000	
          1.50000000	        134.37335702	       1074.42473506	         85.65714177	         -0.15740753	          0.00000000	         -0.05795882	          1.66080953	        -19.50665025	         -1.60371220	         -0.01305626	          0.00000000	         -0.00338486	          0.00000000	         -2.40229049	          0.00000000	          0.00000000	         -0.21877629	          0.00000000	
          1.50500000	        141.25768085	       1076.58190651	         85.33274410	         -0.15652432	          0.00000000	         -0.05796584	          2.02147128	        -21.16169418	         -1.67784543	         -0.01226135	          0.00000000	         -0.00313880	          0.00000000	         -2.33386338	          0.00000000	          0.00000000	         -0.28998861	          0.00000000	
          1.51000000	        148.13909724	       1077.76222497	         84.98390583	         -0.15563770	          0.00000000	         -0.05796597	          2.33457573	        -21.13270499	         -1.58652184	         -0.00950961	          0.00000000	         -0.00236798	          0.00000000	         -2.26337892	          0.00000000	          0.00000000	         -0.36527191	          0.00000000	
          1.51500000	        154.88921056	       1077.84380562	         84.58644713	         -0.15473812	          0.00000000	         -0.05795616	          2.53490571	        -18.48124390	         -1.24845099	         -0.00404579	          0.00000000	         -0.00087396	          0.00000000	         -2.19640085	          0.00000000	          0.00000000	         -0.43761887	          0.00000000	
          1.52000000	        161.37997601	       1076.70001319	         84.10590623	         -0.15381558	          0.00000000	         -0.05793252	          2.53467116	        -12.06735294	         -0.56730110	          0.00497333	          0.00000000	          0.00156359	          0.00000000	         -2.13857185	          0.00000000	          0.00000000	         -0.49646457	          0.00000000	
          1.52500000	        167.49533659	       1074.20506656	         83.49988907	         -0.15286071	          0.00000000	         -0.05789087	          2.22170928	         -0.57741805	          0.56483437	          0.01842421	          0.00000000	          0.00517180	          0.00000000	         -2.09465566	          0.00000000	          0.00000000	         -0.52699933	          0.00000000	
